<svg width="56" height="56" viewBox="0 0 56 56" fill="none" xmlns="http://www.w3.org/2000/svg">
<path d="M0 14C0 6.26801 6.26801 0 14 0H41.994C49.726 0 55.994 6.26801 55.994 14V41.994C55.994 49.726 49.726 55.994 41.994 55.994H14C6.26801 55.994 0 49.726 0 41.994V14Z" fill="#009293" fill-opacity="0.1"/>
<path d="M23.9902 27.9987H31.9868M23.9902 33.3298H31.9868M34.6524 39.9937H21.3246C20.6177 39.9937 19.9397 39.7129 19.4398 39.213C18.9399 38.7131 18.6591 38.0351 18.6591 37.3281V18.6692C18.6591 17.9623 18.9399 17.2843 19.4398 16.7844C19.9397 16.2845 20.6177 16.0037 21.3246 16.0037H28.7695C29.123 16.0037 29.4619 16.1442 29.7118 16.3942L36.9275 23.6098C37.1774 23.8597 37.3179 24.1987 37.318 24.5521V37.3281C37.318 38.0351 37.0371 38.7131 36.5372 39.213C36.0374 39.7129 35.3594 39.9937 34.6524 39.9937Z" stroke="#009293" stroke-width="2" stroke-linecap="round" stroke-linejoin="round"/>
</svg>
