<svg width="56" height="56" viewBox="0 0 56 56" fill="none" xmlns="http://www.w3.org/2000/svg">
<path d="M0 14C0 6.26801 6.26801 0 14 0H41.994C49.726 0 55.994 6.26801 55.994 14V41.994C55.994 49.726 49.726 55.994 41.994 55.994H14C6.26801 55.994 0 49.726 0 41.994V14Z" fill="#009293" fill-opacity="0.1"/>
<path d="M24.4014 31.5969L26.4014 33.5969L31.7348 28.2635" stroke="#009293" stroke-width="2" stroke-linecap="round" stroke-linejoin="round"/>
<path d="M30.655 19.9969C33.3217 19.9969 33.3217 18.6636 33.3217 17.3302C33.3217 14.6636 31.9884 14.6636 30.655 14.6636H25.3217C23.9884 14.6636 22.655 14.6636 22.655 17.3302C22.655 19.9969 23.9884 19.9969 25.3217 19.9969H30.655Z" stroke="#009293" stroke-width="2" stroke-linecap="round" stroke-linejoin="round"/>
<path d="M33.3217 17.3569C37.7617 17.5969 39.9883 19.2369 39.9883 25.3303V33.3303C39.9883 38.6636 38.655 41.3303 31.9883 41.3303H23.9883C17.3217 41.3303 15.9883 38.6636 15.9883 33.3303V25.3303C15.9883 19.2503 18.215 17.5969 22.655 17.3569" stroke="#009293" stroke-width="2" stroke-linecap="round" stroke-linejoin="round"/>
</svg>
