<svg width="56" height="56" viewBox="0 0 56 56" fill="none" xmlns="http://www.w3.org/2000/svg">
<path d="M0 14C0 6.26801 6.26801 0 14 0H41.994C49.726 0 55.994 6.26801 55.994 14V41.994C55.994 49.726 49.726 55.994 41.994 55.994H14C6.26801 55.994 0 49.726 0 41.994V14Z" fill="#009293" fill-opacity="0.1"/>
<path d="M14.655 14.6637V37.3304C14.655 39.5437 16.4417 41.3304 18.655 41.3304H41.3217" stroke="#009293" stroke-width="2" stroke-miterlimit="10" stroke-linecap="round" stroke-linejoin="round"/>
<path d="M18.655 34.6637L24.775 27.517C25.7884 26.3437 27.5884 26.2637 28.6817 27.3703L29.9484 28.637C31.0417 29.7303 32.8417 29.6636 33.855 28.4903L39.9884 21.3303" stroke="#009293" stroke-width="2" stroke-miterlimit="10" stroke-linecap="round" stroke-linejoin="round"/>
</svg>
