<svg width="64" height="64" viewBox="0 0 64 64" fill="none" xmlns="http://www.w3.org/2000/svg">
<path d="M0 14C0 6.26801 6.26801 0 14 0H50C57.732 0 64 6.26801 64 14V50C64 57.732 57.732 64 50 64H14C6.26801 64 0 57.732 0 50V14Z" fill="#009293" fill-opacity="0.1"/>
<path d="M31.9998 45.3334C39.3636 45.3334 45.3332 39.3638 45.3332 32C45.3332 24.6362 39.3636 18.6667 31.9998 18.6667C24.636 18.6667 18.6665 24.6362 18.6665 32C18.6665 39.3638 24.636 45.3334 31.9998 45.3334Z" stroke="#009293" stroke-width="2.66667" stroke-linecap="round" stroke-linejoin="round"/>
<path d="M32 24V32L37.3333 34.6667" stroke="#009293" stroke-width="2.66667" stroke-linecap="round" stroke-linejoin="round"/>
</svg>
