<svg width="64" height="64" viewBox="0 0 64 64" fill="none" xmlns="http://www.w3.org/2000/svg">
<path d="M0 14C0 6.26801 6.26801 0 14 0H50C57.732 0 64 6.26801 64 14V50C64 57.732 57.732 64 50 64H14C6.26801 64 0 57.732 0 50V14Z" fill="#009293" fill-opacity="0.1"/>
<path d="M41.3333 30.6666H22.6667C21.1939 30.6666 20 31.8605 20 33.3333V42.6666C20 44.1394 21.1939 45.3333 22.6667 45.3333H41.3333C42.8061 45.3333 44 44.1394 44 42.6666V33.3333C44 31.8605 42.8061 30.6666 41.3333 30.6666Z" stroke="#009293" stroke-width="2.66667" stroke-linecap="round" stroke-linejoin="round"/>
<path d="M25.3335 30.6666V25.3333C25.3335 23.5652 26.0359 21.8695 27.2861 20.6192C28.5364 19.369 30.2321 18.6666 32.0002 18.6666C33.7683 18.6666 35.464 19.369 36.7142 20.6192C37.9645 21.8695 38.6668 23.5652 38.6668 25.3333V30.6666" stroke="#009293" stroke-width="2.66667" stroke-linecap="round" stroke-linejoin="round"/>
</svg>
