<svg width="64" height="64" viewBox="0 0 64 64" fill="none" xmlns="http://www.w3.org/2000/svg">
<path d="M0 14C0 6.26801 6.26801 0 14 0H50C57.732 0 64 6.26801 64 14V50C64 57.732 57.732 64 50 64H14C6.26801 64 0 57.732 0 50V14Z" fill="#009293" fill-opacity="0.1"/>
<path d="M30.6665 38.6667L33.3332 41.3334C33.5958 41.596 33.9076 41.8044 34.2508 41.9465C34.5939 42.0886 34.9617 42.1618 35.3332 42.1618C35.7046 42.1618 36.0724 42.0886 36.4156 41.9465C36.7587 41.8044 37.0705 41.596 37.3332 41.3334C37.5958 41.0707 37.8042 40.7589 37.9463 40.4158C38.0884 40.0726 38.1616 39.7048 38.1616 39.3334C38.1616 38.9619 38.0884 38.5941 37.9463 38.251C37.8042 37.9078 37.5958 37.596 37.3332 37.3334" stroke="#009293" stroke-width="2.66667" stroke-linecap="round" stroke-linejoin="round"/>
<path d="M34.6665 34.6666L37.9998 37.9999C38.5302 38.5304 39.2497 38.8284 39.9998 38.8284C40.75 38.8284 41.4694 38.5304 41.9998 37.9999C42.5302 37.4695 42.8282 36.7501 42.8282 35.9999C42.8282 35.2498 42.5302 34.5304 41.9998 33.9999L36.8265 28.8266C36.0765 28.0775 35.0598 27.6568 33.9998 27.6568C32.9398 27.6568 31.9231 28.0775 31.1731 28.8266L29.9998 29.9999C29.4694 30.5304 28.75 30.8284 27.9998 30.8284C27.2497 30.8284 26.5302 30.5304 25.9998 29.9999C25.4694 29.4695 25.1714 28.7501 25.1714 27.9999C25.1714 27.2498 25.4694 26.5304 25.9998 25.9999L29.7465 22.2533C30.9628 21.0401 32.549 20.2673 34.254 20.0572C35.959 19.8471 37.6854 20.2117 39.1598 21.0933L39.7865 21.4666C40.3542 21.8093 41.0292 21.9281 41.6798 21.7999L43.9998 21.3333" stroke="#009293" stroke-width="2.66667" stroke-linecap="round" stroke-linejoin="round"/>
<path d="M43.9998 20L45.3332 34.6667H42.6665" stroke="#009293" stroke-width="2.66667" stroke-linecap="round" stroke-linejoin="round"/>
<path d="M19.9998 20L18.6665 34.6667L27.3332 43.3333C27.8636 43.8638 28.583 44.1618 29.3332 44.1618C30.0833 44.1618 30.8027 43.8638 31.3332 43.3333C31.8636 42.8029 32.1616 42.0835 32.1616 41.3333C32.1616 40.5832 31.8636 39.8638 31.3332 39.3333" stroke="#009293" stroke-width="2.66667" stroke-linecap="round" stroke-linejoin="round"/>
<path d="M20 21.3334H30.6667" stroke="#009293" stroke-width="2.66667" stroke-linecap="round" stroke-linejoin="round"/>
</svg>
