<svg width="64" height="64" viewBox="0 0 64 64" fill="none" xmlns="http://www.w3.org/2000/svg">
<path d="M0 14C0 6.26801 6.26801 0 14 0H50C57.732 0 64 6.26801 64 14V50C64 57.732 57.732 64 50 64H14C6.26801 64 0 57.732 0 50V14Z" fill="#009293" fill-opacity="0.1"/>
<path d="M37.3332 42.6667V21.3334C37.3332 20.6261 37.0522 19.9478 36.5521 19.4477C36.052 18.9476 35.3737 18.6667 34.6665 18.6667H29.3332C28.6259 18.6667 27.9477 18.9476 27.4476 19.4477C26.9475 19.9478 26.6665 20.6261 26.6665 21.3334V42.6667" stroke="#009293" stroke-width="2.66667" stroke-linecap="round" stroke-linejoin="round"/>
<path d="M42.6665 24H21.3332C19.8604 24 18.6665 25.1939 18.6665 26.6667V40C18.6665 41.4728 19.8604 42.6667 21.3332 42.6667H42.6665C44.1393 42.6667 45.3332 41.4728 45.3332 40V26.6667C45.3332 25.1939 44.1393 24 42.6665 24Z" stroke="#009293" stroke-width="2.66667" stroke-linecap="round" stroke-linejoin="round"/>
</svg>
