<svg width="56" height="56" viewBox="0 0 56 56" fill="none" xmlns="http://www.w3.org/2000/svg">
<path d="M0 14C0 6.26801 6.26801 0 14 0H41.994C49.726 0 55.994 6.26801 55.994 14V41.994C55.994 49.726 49.726 55.994 41.994 55.994H14C6.26801 55.994 0 49.726 0 41.994V14Z" fill="#009293" fill-opacity="0.1"/>
<path d="M17.155 17.1638V35.5805C17.155 37.3788 18.6067 38.8305 20.405 38.8305H38.8217" stroke="#009293" stroke-width="2" stroke-linecap="round" stroke-linejoin="round"/>
<path d="M20.405 33.4137L25.3775 27.607C26.2008 26.6537 27.6633 26.5887 28.5517 27.4878L29.5808 28.517C30.4692 29.4053 31.9317 29.3511 32.755 28.3978L37.7383 22.5803" stroke="#009293" stroke-width="2" stroke-linecap="round" stroke-linejoin="round"/>
</svg>
