<svg width="56" height="56" viewBox="0 0 56 56" fill="none" xmlns="http://www.w3.org/2000/svg">
<path d="M0 14C0 6.26801 6.26801 0 14 0H41.994C49.726 0 55.994 6.26801 55.994 14V41.994C55.994 49.726 49.726 55.994 41.994 55.994H14C6.26801 55.994 0 49.726 0 41.994V14Z" fill="#009293" fill-opacity="0.1"/>
<path d="M34.2825 22.7538C32.7875 22.6997 31.5958 21.4755 31.5958 19.9588C31.5958 18.4097 32.8416 17.1638 34.3908 17.1638C35.94 17.1638 37.1858 18.4205 37.1858 19.9588C37.175 21.4755 35.9833 22.6997 34.4883 22.7538C34.4233 22.743 34.3475 22.743 34.2825 22.7538Z" stroke="#009293" stroke-width="2" stroke-linecap="round" stroke-linejoin="round"/>
<path d="M33.3725 30.6404C34.8566 30.8896 36.4925 30.6296 37.6408 29.8604C39.1683 28.8421 39.1683 27.1738 37.6408 26.1554C36.4816 25.3863 34.8241 25.1262 33.34 25.3862" stroke="#009293" stroke-width="2" stroke-linecap="round" stroke-linejoin="round"/>
<path d="M21.6617 22.7538C23.1567 22.6997 24.3483 21.4755 24.3483 19.9588C24.3483 18.4097 23.1025 17.1638 21.5533 17.1638C20.0042 17.1638 18.7583 18.4205 18.7583 19.9588C18.7692 21.4755 19.9608 22.6997 21.4558 22.7538C21.5208 22.743 21.5967 22.743 21.6617 22.7538Z" stroke="#009293" stroke-width="2" stroke-linecap="round" stroke-linejoin="round"/>
<path d="M22.5716 30.6404C21.0874 30.8896 19.4516 30.6296 18.3033 29.8604C16.7758 28.8421 16.7758 27.1738 18.3033 26.1554C19.4624 25.3863 21.1199 25.1262 22.6041 25.3862" stroke="#009293" stroke-width="2" stroke-linecap="round" stroke-linejoin="round"/>
<path d="M27.7825 30.8461C26.2875 30.7919 25.0958 29.5678 25.0958 28.0511C25.0958 26.5019 26.3416 25.2561 27.8908 25.2561C29.44 25.2561 30.6858 26.5128 30.6858 28.0511C30.675 29.5678 29.4833 30.8028 27.9883 30.8461C27.9233 30.8353 27.8475 30.8353 27.7825 30.8461Z" stroke="#009293" stroke-width="2" stroke-linecap="round" stroke-linejoin="round"/>
<path d="M24.8358 37.9637C26.5691 39.1229 29.4075 39.1229 31.1408 37.9637C32.6683 36.9454 32.6683 35.277 31.1408 34.2587C29.4183 33.1104 26.5691 33.1104 24.8358 34.2587C23.3083 35.277 23.3083 36.9454 24.8358 37.9637Z" stroke="#009293" stroke-width="2" stroke-linecap="round" stroke-linejoin="round"/>
</svg>
