<svg width="56" height="56" viewBox="0 0 56 56" fill="none" xmlns="http://www.w3.org/2000/svg">
<path d="M0 14C0 6.26801 6.26801 0 14 0H41.994C49.726 0 55.994 6.26801 55.994 14V41.994C55.994 49.726 49.726 55.994 41.994 55.994H14C6.26801 55.994 0 49.726 0 41.994V14Z" fill="#009293" fill-opacity="0.1"/>
<path d="M22.655 28.2637H31.9884" stroke="#009293" stroke-width="2" stroke-linecap="round" stroke-linejoin="round"/>
<path d="M22.655 33.5969H28.495" stroke="#009293" stroke-width="2" stroke-linecap="round" stroke-linejoin="round"/>
<path d="M30.655 19.9972C33.3217 19.9972 33.3217 18.6638 33.3217 17.3305C33.3217 14.6638 31.9884 14.6638 30.655 14.6638H25.3217C23.9884 14.6638 22.655 14.6638 22.655 17.3305C22.655 19.9972 23.9884 19.9972 25.3217 19.9972H30.655Z" stroke="#009293" stroke-width="2" stroke-linecap="round" stroke-linejoin="round"/>
<path d="M33.3217 17.3572C37.7617 17.5972 39.9883 19.2372 39.9883 25.3305V33.3305C39.9883 38.6638 38.655 41.3305 31.9883 41.3305H23.9883C17.3217 41.3305 15.9883 38.6638 15.9883 33.3305V25.3305C15.9883 19.2505 18.215 17.5972 22.655 17.3572" stroke="#009293" stroke-width="2" stroke-linecap="round" stroke-linejoin="round"/>
</svg>
