<svg width="56" height="56" viewBox="0 0 56 56" fill="none" xmlns="http://www.w3.org/2000/svg">
<path d="M0 14C0 6.26801 6.26801 0 14 0H41.994C49.726 0 55.994 6.26801 55.994 14V41.994C55.994 49.726 49.726 55.994 41.994 55.994H14C6.26801 55.994 0 49.726 0 41.994V14Z" fill="#009293" fill-opacity="0.1"/>
<path d="M34.6549 29.8637V33.8637C34.6549 39.197 32.5216 41.3303 27.1882 41.3303H22.1216C16.7882 41.3303 14.6549 39.197 14.6549 33.8637V28.797C14.6549 23.4637 16.7882 21.3303 22.1216 21.3303H26.1216" stroke="#009293" stroke-width="2" stroke-linecap="round" stroke-linejoin="round"/>
<path d="M30.3882 29.8637C27.1882 29.8637 26.1216 28.797 26.1216 25.597V21.3303L34.6549 29.8637H30.3882Z" stroke="#009293" stroke-width="2" stroke-linecap="round" stroke-linejoin="round"/>
<path d="M27.455 14.6638H32.7883" stroke="#009293" stroke-width="2" stroke-linecap="round" stroke-linejoin="round"/>
<path d="M21.3217 18.6638C21.3217 16.4505 23.1083 14.6638 25.3217 14.6638H28.815" stroke="#009293" stroke-width="2" stroke-linecap="round" stroke-linejoin="round"/>
<path d="M41.3215 22.6638V30.9172C41.3215 32.9838 39.6415 34.6638 37.5748 34.6638" stroke="#009293" stroke-width="2" stroke-linecap="round" stroke-linejoin="round"/>
<path d="M37.3217 22.6638C34.3217 22.6638 33.3217 21.6638 33.3217 18.6638V14.6638L41.3217 22.6638H37.3217Z" stroke="#009293" stroke-width="2" stroke-linecap="round" stroke-linejoin="round"/>
</svg>
