<svg width="56" height="56" viewBox="0 0 56 56" fill="none" xmlns="http://www.w3.org/2000/svg">
<path d="M0 14C0 6.26801 6.26801 0 14 0H42C49.732 0 56 6.26801 56 14V42C56 49.732 49.732 56 42 56H14C6.26801 56 0 49.732 0 42V14Z" fill="#009293" fill-opacity="0.1"/>
<path d="M30.3332 16.3333V23.3333C30.3331 23.7247 30.4314 24.1099 30.6191 24.4533L37.0474 36.2133C37.2418 36.5687 37.3404 36.9686 37.3334 37.3736C37.3264 37.7786 37.2141 38.1749 37.0075 38.5233C36.8009 38.8718 36.5071 39.1604 36.1551 39.3609C35.8031 39.5614 35.405 39.6667 34.9999 39.6666H20.9999C20.5948 39.6667 20.1967 39.5614 19.8446 39.3609C19.4926 39.1604 19.1989 38.8718 18.9923 38.5233C18.7857 38.1749 18.6734 37.7786 18.6664 37.3736C18.6594 36.9686 18.7579 36.5687 18.9524 36.2133L25.3807 24.4533C25.5684 24.1099 25.6667 23.7247 25.6666 23.3333V16.3333" stroke="#009293" stroke-width="2.33333" stroke-linecap="round" stroke-linejoin="round"/>
<path d="M21.5286 31.5H34.4716" stroke="#009293" stroke-width="2.33333" stroke-linecap="round" stroke-linejoin="round"/>
<path d="M23.9167 16.3333H32.0834" stroke="#009293" stroke-width="2.33333" stroke-linecap="round" stroke-linejoin="round"/>
</svg>
