<svg width="26" height="26" viewBox="0 0 26 26" fill="none" xmlns="http://www.w3.org/2000/svg">
<path d="M17.3342 23.8333C21.6892 23.8333 22.4692 22.0892 22.6967 19.9658L23.5092 11.2992C23.8017 8.65583 23.0434 6.5 18.4175 6.5H7.5842C2.95837 6.5 2.20004 8.65583 2.49254 11.2992L3.30504 19.9658C3.53254 22.0892 4.31254 23.8333 8.66754 23.8333H17.3342Z" stroke="#009293" stroke-linecap="round" stroke-linejoin="round"/>
<path d="M8.66797 6.49984V5.63317C8.66797 3.71567 8.66797 2.1665 12.1346 2.1665H13.868C17.3346 2.1665 17.3346 3.71567 17.3346 5.63317V6.49984" stroke="#009293" stroke-linecap="round" stroke-linejoin="round"/>
<path d="M15.1654 15.1667C15.1654 15.1775 15.1654 15.1775 15.1654 15.1883C15.1654 16.3692 15.1545 17.3333 12.9987 17.3333C10.8537 17.3333 10.832 16.38 10.832 15.1992V14.0833C10.832 13 10.832 13 11.9154 13H14.082C15.1654 13 15.1654 13 15.1654 14.0833V15.1667Z" stroke="#009293" stroke-linecap="round" stroke-linejoin="round"/>
<path d="M23.4555 11.9165C20.953 13.7365 18.093 14.8198 15.168 15.1882" stroke="#009293" stroke-linecap="round" stroke-linejoin="round"/>
<path d="M2.83789 12.2095C5.27539 13.8778 8.02706 14.8853 10.8329 15.1995" stroke="#009293" stroke-linecap="round" stroke-linejoin="round"/>
</svg>
