<svg width="56" height="56" viewBox="0 0 56 56" fill="none" xmlns="http://www.w3.org/2000/svg">
<path d="M0 14C0 6.26801 6.26801 0 14 0H42C49.732 0 56 6.26801 56 14V42C56 49.732 49.732 56 42 56H14C6.26801 56 0 49.732 0 42V14Z" fill="#009293" fill-opacity="0.1"/>
<path d="M21 35H30.3333" stroke="#009293" stroke-width="2.33333" stroke-linecap="round" stroke-linejoin="round"/>
<path d="M17.5 39.6667H38.5" stroke="#009293" stroke-width="2.33333" stroke-linecap="round" stroke-linejoin="round"/>
<path d="M30.3333 39.6666C32.4992 39.6666 34.5765 38.8062 36.108 37.2747C37.6395 35.7431 38.5 33.6659 38.5 31.5C38.5 29.334 37.6395 27.2568 36.108 25.7253C34.5765 24.1937 32.4992 23.3333 30.3333 23.3333H29.1666" stroke="#009293" stroke-width="2.33333" stroke-linecap="round" stroke-linejoin="round"/>
<path d="M24.5 30.3333H26.8333" stroke="#009293" stroke-width="2.33333" stroke-linecap="round" stroke-linejoin="round"/>
<path d="M24.5 28C23.8811 28 23.2876 27.7542 22.85 27.3166C22.4125 26.879 22.1666 26.2855 22.1666 25.6667V21H29.1666V25.6667C29.1666 26.2855 28.9208 26.879 28.4832 27.3166C28.0456 27.7542 27.4521 28 26.8333 28H24.5Z" stroke="#009293" stroke-width="2.33333" stroke-linecap="round" stroke-linejoin="round"/>
<path d="M28 21V17.5C28 17.1906 27.8771 16.8938 27.6583 16.675C27.4395 16.4562 27.1428 16.3333 26.8334 16.3333H24.5C24.1906 16.3333 23.8939 16.4562 23.6751 16.675C23.4563 16.8938 23.3334 17.1906 23.3334 17.5V21" stroke="#009293" stroke-width="2.33333" stroke-linecap="round" stroke-linejoin="round"/>
</svg>
