<svg width="26" height="26" viewBox="0 0 26 26" fill="none" xmlns="http://www.w3.org/2000/svg">
<path d="M21.6667 15.1666C22.8633 15.1666 23.8333 14.1965 23.8333 12.9999C23.8333 11.8033 22.8633 10.8333 21.6667 10.8333C20.47 10.8333 19.5 11.8033 19.5 12.9999C19.5 14.1965 20.47 15.1666 21.6667 15.1666Z" stroke="#009293" stroke-linecap="round" stroke-linejoin="round"/>
<path d="M21.6667 6.50008C22.8633 6.50008 23.8333 5.53003 23.8333 4.33341C23.8333 3.1368 22.8633 2.16675 21.6667 2.16675C20.47 2.16675 19.5 3.1368 19.5 4.33341C19.5 5.53003 20.47 6.50008 21.6667 6.50008Z" stroke="#009293" stroke-linecap="round" stroke-linejoin="round"/>
<path d="M21.6667 23.8333C22.8633 23.8333 23.8333 22.8633 23.8333 21.6667C23.8333 20.47 22.8633 19.5 21.6667 19.5C20.47 19.5 19.5 20.47 19.5 21.6667C19.5 22.8633 20.47 23.8333 21.6667 23.8333Z" stroke="#009293" stroke-linecap="round" stroke-linejoin="round"/>
<path d="M4.33341 15.1666C5.53003 15.1666 6.50008 14.1965 6.50008 12.9999C6.50008 11.8033 5.53003 10.8333 4.33341 10.8333C3.1368 10.8333 2.16675 11.8033 2.16675 12.9999C2.16675 14.1965 3.1368 15.1666 4.33341 15.1666Z" stroke="#009293" stroke-linecap="round" stroke-linejoin="round"/>
<path d="M6.5 13H19.5" stroke="#009293" stroke-linecap="round" stroke-linejoin="round"/>
<path d="M19.5001 4.33325H15.1667C13.0001 4.33325 11.9167 5.41659 11.9167 7.58325V18.4166C11.9167 20.5833 13.0001 21.6666 15.1667 21.6666H19.5001" stroke="#009293" stroke-linecap="round" stroke-linejoin="round"/>
</svg>
