<svg width="56" height="56" viewBox="0 0 56 56" fill="none" xmlns="http://www.w3.org/2000/svg">
<path d="M0 14C0 6.26801 6.26801 0 14 0H42C49.732 0 56 6.26801 56 14V42C56 49.732 49.732 56 42 56H14C6.26801 56 0 49.732 0 42V14Z" fill="#009293" fill-opacity="0.1"/>
<path d="M27.9999 39.6667C34.4432 39.6667 39.6666 34.4434 39.6666 28C39.6666 21.5567 34.4432 16.3334 27.9999 16.3334C21.5566 16.3334 16.3333 21.5567 16.3333 28C16.3333 34.4434 21.5566 39.6667 27.9999 39.6667Z" stroke="#009293" stroke-width="2.33333" stroke-linecap="round" stroke-linejoin="round"/>
<path d="M28 35C31.866 35 35 31.866 35 28C35 24.134 31.866 21 28 21C24.134 21 21 24.134 21 28C21 31.866 24.134 35 28 35Z" stroke="#009293" stroke-width="2.33333" stroke-linecap="round" stroke-linejoin="round"/>
<path d="M28.0001 30.3333C29.2887 30.3333 30.3334 29.2886 30.3334 28C30.3334 26.7113 29.2887 25.6666 28.0001 25.6666C26.7114 25.6666 25.6667 26.7113 25.6667 28C25.6667 29.2886 26.7114 30.3333 28.0001 30.3333Z" stroke="#009293" stroke-width="2.33333" stroke-linecap="round" stroke-linejoin="round"/>
</svg>
