<svg width="21" height="27" viewBox="0 0 21 27" fill="none" xmlns="http://www.w3.org/2000/svg">
<path d="M6.76786 26.5H13.7321M7.46429 10.9H13.0357M10.25 10.9L10.25 18.7M14.4286 17.8243C17.7226 16.3638 20 13.2301 20 9.6C20 4.57421 15.6348 0.5 10.25 0.5C4.86522 0.5 0.5 4.57421 0.5 9.6C0.5 13.2301 2.77739 16.3638 6.07143 17.8243V18.7C6.07143 19.9114 6.07143 20.5172 6.28348 20.995C6.56621 21.632 7.10852 22.1382 7.7911 22.4021C8.30303 22.6 8.95202 22.6 10.25 22.6C11.548 22.6 12.197 22.6 12.7089 22.4021C13.3915 22.1382 13.9338 21.632 14.2165 20.995C14.4286 20.5172 14.4286 19.9114 14.4286 18.7V17.8243Z" stroke="#009293" stroke-linecap="round" stroke-linejoin="round"/>
</svg>
