<svg width="116" height="30" viewBox="0 0 116 30" fill="none" xmlns="http://www.w3.org/2000/svg">
<g clip-path="url(#clip0_1346_2882)">
<path d="M29.9977 25.7842C31.2101 25.7842 31.2363 27.5337 29.9977 27.6146H17.2671C16.2612 27.6146 15.9269 26.7651 16.52 26.0775L28.0643 12.5033H17.6276C16.4938 12.5033 16.4676 10.7539 17.6276 10.7539H29.8961C30.9512 10.7539 31.2363 11.5764 30.6432 12.3449L18.994 25.7842H29.9977Z" fill="#009293"/>
<path d="M44.5358 25.8652C45.6172 25.8652 45.7745 27.6146 44.5358 27.6146H33.6862C32.9653 27.6146 32.5 27.0854 32.5 26.4483V11.8932C32.5 11.2831 32.9653 10.7539 33.6862 10.7539H44.562C45.6696 10.7539 45.6172 12.4494 44.5358 12.4494H34.358V18.4157H44.0476C45.0798 18.4157 45.1289 20.1112 44.0476 20.1112H34.358V25.8652H44.5358Z" fill="#009293"/>
<path d="M48.8106 26.6882C48.8106 27.2983 48.3453 27.6151 47.857 27.6151C47.3917 27.6151 46.9297 27.2983 46.9297 26.7151V11.6848C46.9297 11.1286 47.3164 10.7578 47.8832 10.7578H53.9913C58.451 10.7578 60.7186 13.3567 60.7186 16.4578C60.7186 19.1342 59.2997 21.069 56.131 21.6286L60.0731 26.0039C60.794 26.7455 60.1747 27.6219 59.48 27.6219C59.2473 27.6219 58.9917 27.514 58.7853 27.278L53.811 21.7365H48.8106V26.6949V26.6882ZM54.0175 20.0612C57.3435 20.0612 58.8115 18.4971 58.8115 16.5623C58.7853 14.2837 57.006 12.5342 54.0175 12.5342H48.8106V20.0645H54.0175V20.0612Z" fill="#009293"/>
<path d="M75.038 10.7534C75.5033 10.7534 75.9915 11.0197 75.9915 11.6028V26.4747C75.9915 27.2433 75.3984 27.614 74.8053 27.614C74.3662 27.614 73.9042 27.4017 73.6715 27.0039L64.0344 13.8545L64.2408 17.5118V26.6298C64.2408 27.2938 63.7525 27.6107 63.261 27.6107C62.7695 27.6107 62.2812 27.2938 62.2812 26.6298V11.9163C62.2812 11.1478 62.7695 10.75 63.3135 10.75C63.7001 10.75 64.113 10.9624 64.3686 11.3601L74.2908 24.7758L74.032 20.7713V11.5994C74.032 11.0433 74.5202 10.75 75.038 10.75V10.7534Z" fill="#009293"/>
<path d="M77.7602 12.1865C77.2196 11.4449 77.888 10.7539 78.5598 10.7539C78.8678 10.7539 79.1791 10.8854 79.3856 11.2056L85.0283 19.1337L90.7234 11.2056C90.9298 10.8887 91.2117 10.7539 91.523 10.7539C92.1423 10.7539 92.7616 11.391 92.2701 12.1595L86.008 20.8022V26.6337C86.008 27.2977 85.4936 27.6146 85.0545 27.6146C84.54 27.6146 84.1009 27.2977 84.1009 26.6337V20.8022L77.7602 12.1865Z" fill="#009293"/>
<path d="M106.642 11.0977C106.848 10.8584 107.081 10.7539 107.336 10.7539C108.005 10.7539 108.65 11.5764 108.057 12.264L102.31 18.9988L108.29 26.0236C108.909 26.8191 108.418 27.6146 107.723 27.6146C107.438 27.6146 107.13 27.4831 106.848 27.1899L101.153 20.3775L95.3529 27.2168C95.0941 27.5067 94.8123 27.6146 94.5534 27.6146C93.8587 27.6146 93.3148 26.7652 93.9603 26.0236L99.9405 18.9988L94.2192 12.2135C93.6523 11.5494 94.2978 10.7539 94.9663 10.7539C95.1989 10.7539 95.4316 10.8348 95.6348 11.0708L101.15 17.7247L106.638 11.0977H106.642Z" fill="#009293"/>
<path d="M115.111 2.05024H110.513C110.202 2.05024 109.953 2.30979 109.953 2.62665C109.953 2.9435 110.205 3.20305 110.513 3.20305H114.554V7.35249C114.554 7.67271 114.806 7.9289 115.114 7.9289C115.422 7.9289 115.674 7.66934 115.674 7.35249V2.62328C115.674 2.30305 115.422 2.04688 115.114 2.04688L115.111 2.05024Z" fill="#009293"/>
<path d="M112.736 4.83149H108.138C107.827 4.83149 107.578 5.09104 107.578 5.4079C107.578 5.72475 107.83 5.9843 108.138 5.9843H112.179V10.1337C112.179 10.454 112.431 10.7101 112.739 10.7101C113.047 10.7101 113.299 10.4506 113.299 10.1337V5.40453C113.299 5.0843 113.047 4.82812 112.739 4.82812L112.736 4.83149Z" fill="#009293"/>
<path d="M110.353 7.61274H105.756C105.444 7.61274 105.195 7.87229 105.195 8.18915C105.195 8.506 105.448 8.76555 105.756 8.76555H109.796V12.915C109.796 13.2352 110.048 13.4914 110.356 13.4914C110.664 13.4914 110.917 13.2318 110.917 12.915V8.18578C110.917 7.86555 110.664 7.60938 110.356 7.60938L110.353 7.61274Z" fill="#009293"/>
<path d="M6.42795 12.3497L1.74978 17.162C0.727311 18.2138 0.727313 19.9191 1.74978 20.9709L6.42795 25.7832C7.45042 26.835 9.10816 26.835 10.1306 25.7832L14.8088 20.9709C15.8313 19.9191 15.8313 18.2138 14.8088 17.162L10.1306 12.3497C9.10816 11.2979 7.45042 11.2979 6.42795 12.3497Z" fill="#009293"/>
<path d="M6.54819 21.9805L11.4602 16.3445C11.5814 16.2029 11.4864 15.9805 11.3029 15.9805H10.3723C10.2314 15.9805 10.097 16.0411 10.0053 16.149L5.09328 21.785C4.97203 21.9265 5.06706 22.149 5.25056 22.149H6.18119C6.32209 22.149 6.45644 22.0883 6.54819 21.9805Z" fill="white"/>
<path d="M9.55242 19.5347L7.49129 21.9448C7.42248 22.0257 7.47818 22.1538 7.58304 22.1538H11.7676C11.8724 22.1538 11.9281 22.0257 11.8593 21.9448L9.79818 19.5347C9.73265 19.4572 9.61796 19.4572 9.55242 19.5347Z" fill="white"/>
<path d="M6.9935 18.5957L9.05463 16.1856C9.12344 16.1047 9.06773 15.9766 8.96287 15.9766H4.77835C4.67349 15.9766 4.61779 16.1047 4.6866 16.1856L6.74773 18.5957C6.81327 18.6732 6.92796 18.6732 6.9935 18.5957Z" fill="white"/>
</g>
<defs>
<clipPath id="clip0_1346_2882">
<rect width="116" height="30" fill="white"/>
</clipPath>
</defs>
</svg>
